# xmcd
#
# Track frame offsets: 
#        150
#        9401
#        15020
#        21441
#        31221
#        42867
#        48765
#        56232
#        64839
#        73762
#        86531
#        91463
#        99149
#        104058
#        110483
#        117408
#        129038
#        134631
#        141883
#        150777
#        157127
#        164847
#        173404
#        183369
#        190197
#        197320
#        207612
#        216594
#        221314
#        228325
#        235543
#        240433
#        249654
#
# Disc length: 3425 seconds
#
# Revision: 0
# Processed by: cddbd v1.5.2PL0 Copyright (c) Steve Scherf et al.
# Submitted via: ExactAudioCopy v0.95a4
#
DISCID=c00d5f21
DTITLE=Various Artist - 33 Pickin' Bluegrass Picks Instrumentals
DYEAR=2015
DGENRE=Bluegrass
TTITLE0=Vassar Clements and Bobby Atkins - Flop Eared Mule
TTITLE1=Dewayne Wear and The Wear Family - Cotton Eyed Joe
TTITLE2=James Wall - Tragic Romance
TTITLE3=Mac Martin and The Dixie Travelers - Charlotte Breakdown
TTITLE4=The Cumberlands - Soldier's Joy
TTITLE5=Charlie Moore and The Dixie Partners - Double Eagle
TTITLE6=Raymond Fairchild - Kickin' Mule
TTITLE7=Dewayne Wear and The Wear Family - Orange Blossom Special
TTITLE8=James Wall - Gathering Flowers From The Hillside
TTITLE9=Vassar Clements and Bobby Atkins - Pike County Breakdown
TTITLE10=Fiddlin' Mut Poston and The Farm Hands - Fire On The Mountain
TTITLE11=Jack Casey - Jesse James
TTITLE12=Hylo Brown - Maggie
TTITLE13=Dewayne Wear - Boil Them Cabbage Down
TTITLE14=James Wall - Wreck Of The Old '97
TTITLE15=Raymond Fairchild - Earl's Breakdown
TTITLE16=Fiddlin' Mut Poston and The Farm Hands  - Old Joe Clark
TTITLE17=Clarence "Hound Dog" Jackson - John Henry
TTITLE18=Mac Martin and The Dixie Travelers - Weary Lonesome Blues
TTITLE19=Jim Greer and The Mac-O-Chee Valley Folks - Red Apple Rag
TTITLE20=James Wall - Deep Elm Blues
TTITLE21=Mac Martin and The Dixie Travelers - I Don't Love Nobody
TTITLE22=Raymon Fairchild - Cotton Eyed Joe
TTITLE23=Bob Ensign and The Stump-Jumpers - Johnson's Mule
TTITLE24=Mac Martin and The Dixie Travelers - Goin' Down The Country
TTITLE25=The Cumberlands - Run, Boy Run
TTITLE26=James Wall - Darling Nelly Gray
TTITLE27=Hylo Brown - Home Sweet Home
TTITLE28=Dewayne Wear and The Wear Family - Old Dan Tucker
TTITLE29=Mac Martin and The Dixie Travelers - Durham's Reel
TTITLE30=Frosty Mountain Boys and Raymond Fairchild - Casey Jones
TTITLE31=Red Whire and His Dixie Bluegrass Band - Big Smoky
TTITLE32=James Wall - Brown's Ferry Blues
EXTD=
EXTT0=
EXTT1=
EXTT2=
EXTT3=
EXTT4=
EXTT5=
EXTT6=
EXTT7=
EXTT8=
EXTT9=
EXTT10=
EXTT11=
EXTT12=
EXTT13=
EXTT14=
EXTT15=
EXTT16=
EXTT17=
EXTT18=
EXTT19=
EXTT20=
EXTT21=
EXTT22=
EXTT23=
EXTT24=
EXTT25=
EXTT26=
EXTT27=
EXTT28=
EXTT29=
EXTT30=
EXTT31=
EXTT32=
PLAYORDER=
